<?xml version="1.0" standalone="no"?>
<!DOCTYPE svg PUBLIC "-//W3C//DTD SVG 20010904//EN"
 "http://www.w3.org/TR/2001/REC-SVG-20010904/DTD/svg10.dtd">
<svg version="1.0" xmlns="http://www.w3.org/2000/svg"
 width="512.000000pt" height="512.000000pt" viewBox="0 0 512.000000 512.000000"
 preserveAspectRatio="xMidYMid meet">

<g transform="translate(0.000000,512.000000) scale(0.100000,-0.100000)"
fill="#000000" stroke="none">
<path d="M2602 5109 c-259 -46 -472 -259 -518 -519 -37 -207 26 -400 181 -556
87 -88 177 -140 290 -169 76 -19 234 -19 310 0 219 55 402 239 460 460 22 81
21 233 0 315 -55 213 -228 390 -443 454 -68 20 -211 28 -280 15z"/>
<path d="M1135 4520 c-137 -15 -299 -99 -385 -198 -50 -58 -103 -158 -126
-237 -20 -72 -23 -200 -5 -275 53 -221 237 -399 461 -446 270 -57 547 77 665
321 65 134 78 234 50 370 -62 296 -350 499 -660 465z"/>
</g>
</svg>
